<svg xmlns="http://www.w3.org/2000/svg" version="1.1" xmlns:xlink="http://www.w3.org/1999/xlink" width="512" height="512" x="0" y="0" viewBox="0 0 100 100" style="enable-background:new 0 0 512 512" xml:space="preserve"><g><path d="M93.3 37.7H71.1c-.8 0-1.5.7-1.5 1.5V62H49.9c-.8 0-1.5.7-1.5 1.5v7.4h-8.6c.5-.9.8-1.9.8-3V57.2c0-5.2-3.9-9.5-8.9-10.3V32.4c0-4.4-2.6-8.2-6.3-10C27 21 28 19 28 16.7v-2c0-4.1-3.4-7.5-7.5-7.5S13 10.6 13 14.7v2c0 2.3 1 4.3 2.6 5.7-1.3.6-2.5 1.5-3.4 2.7-2.2.5-4 2.3-4.4 4.6L5.3 44.9c-.2 1.5.1 3 1 4.2.8 1.1 1.9 1.8 3.1 2.1v25.4c0 1.1.3 2.1.8 3H7.5c-.8 0-1.5.7-1.5 1.5v12.4c0 .8.7 1.5 1.5 1.5h85.8c.8 0 1.5-.7 1.5-1.5V39.2c0-.9-.7-1.5-1.5-1.5zM37.6 57.2v10.5c0 1.6-1.3 2.9-2.9 2.9s-2.9-1.3-2.9-2.9V57.2c0-.8-.7-1.5-1.5-1.5H19.7c-.2 0-.3 0-.5.1h-4c-1.6 0-2.9-1.3-2.9-2.9v-1.6c.6-.2 1.2-.5 1.8-.9l.6-.6h15c.2.1.3.1.5.1.1 0 .3 0 .4-.1 3.9.3 7 3.5 7 7.4zm-25.2.8c.9.5 1.9.8 2.9.8h2.9v17.8c0 1.6-1.3 2.9-2.9 2.9s-2.9-1.3-2.9-2.9zm3.7-41.3v-2c0-2.5 2-4.5 4.5-4.5s4.5 2 4.5 4.5v2c0 2.5-2 4.5-4.5 4.5s-4.5-2-4.5-4.5zm12.7 15.7v14.4H16.4v-.1l2.5-15.2c.4-2.4-.8-4.7-2.9-5.9 1.3-.9 2.9-1.4 4.5-1.4 4.6 0 8.3 3.7 8.3 8.2zm-20.1 15c-.4-.6-.6-1.3-.5-2l2.5-15.2c.2-1.3 1.3-2.2 2.6-2.2h.4c1.4.2 2.4 1.6 2.2 3l-2.5 15.2c-.1.3-.2.7-.4 1-.2.1-.3.3-.4.5l-.3.3c-.4.3-.8.4-1.2.5h-.4c-.1 0-.3 0-.4.1h-.1c-.5-.3-1.1-.7-1.5-1.2zm12.5 29.2V58.7h7.5v9c0 1.1.3 2.1.8 3h-.9c-.8 0-1.5.7-1.5 1.5v7.4h-6.8c.6-.8.9-1.9.9-3zM9 82.6h18.2V92H9zm21.2-1.5v-7.4h18.2V92H30.2zm21.2-8.8v-7.4h18.2V92H51.4zM91.8 92H72.6V40.7h19.2zM74.6 20.6l-.8 6.8c-.1.5.2 1.1.6 1.4.3.2.6.3.9.3.2 0 .4 0 .6-.1l6.2-2.8 6.2 2.8c.5.2 1.1.2 1.5-.2.4-.3.7-.8.6-1.4l-.8-6.8 4.6-5.1c.4-.4.5-1 .3-1.5s-.6-.9-1.1-1l-6.7-1.4-3.4-6c-.1-.3-.6-.6-1.1-.6s-1 .3-1.3.8l-3.4 6-6.7 1.4c-.5.1-1 .5-1.1 1s0 1.1.3 1.5zm4.2-6.1c.4-.1.8-.4 1-.7l2.4-4.2 2.4 4.2c.2.4.6.6 1 .7l4.8 1-3.3 3.6c-.3.3-.4.8-.4 1.2l.5 4.9-4.4-2c-.2-.2-.4-.2-.6-.2s-.4 0-.6.1l-4.4 2 .5-4.9c0-.4-.1-.9-.4-1.2L74 15.5z" fill="#F51414" opacity="1" data-original="#000000"></path></g></svg>