<svg xmlns="http://www.w3.org/2000/svg" version="1.1" xmlns:xlink="http://www.w3.org/1999/xlink" width="512" height="512" x="0" y="0" viewBox="0 0 512 512" style="enable-background:new 0 0 512 512" xml:space="preserve"><g><path d="M438.773 82.655a68.773 68.773 0 0 0-43.532-52.291L339.546 9.6c-.192-.07-.39-.032-.582-.09a10.95 10.95 0 0 0-2.287-.362c-.07-.006-.141-.027-.212-.033-.249-.04-.483-.092-.733-.115-.355-.002-.69 0-1.04.032-.321.027-.625.051-.945.107a10.894 10.894 0 0 0-6.33 2.604c-15.43 8.05-42.287 13.03-71.417 13.03-30.7 0-59.037-5.486-73.955-14.318-.18-.107-.387-.102-.571-.198a10.834 10.834 0 0 0-1.363-.559 11.038 11.038 0 0 0-1.608-.472 10.824 10.824 0 0 0-1.166-.196 11.01 11.01 0 0 0-1.395.016 10.624 10.624 0 0 0-1.648.164 10.794 10.794 0 0 0-1.256.297c-.193.062-.392.022-.584.094l-55.7 20.763a68.777 68.777 0 0 0-43.527 52.29l-63.1 357.855a11.17 11.17 0 0 0 9.06 12.941l72.397 12.768-3.961 23.773A11.171 11.171 0 0 0 98.64 503h314.718a11.171 11.171 0 0 0 11.018-13.01l-3.961-23.772 72.398-12.768a11.17 11.17 0 0 0 9.059-12.94Zm-55.205 286.29h-81.296l-.041-.07a43.48 43.48 0 0 0-.022-24.13h81.36ZM256 480.656h-32.19l31.708-54.923 31.71 54.923Zm-127.568-135.91h80.396a43.476 43.476 0 0 0-.023 24.127l-.043.074h-80.33Zm93.202 46.586a48.337 48.337 0 0 0 20.913 11.934l.072.126-39.36 68.173-20.963-12.105Zm86.143 80.233-39.362-68.173.072-.125a48.312 48.312 0 0 0 20.914-11.934l39.335 68.127Zm-26.195-114.718a26.064 26.064 0 1 1-26.064-26.064 26.092 26.092 0 0 1 26.064 26.064ZM173.026 322.4 339.798 33.539l22.997 8.575L200.976 322.4Zm-1.62-288.565 71.213 123.345-13.974 24.203L148.406 42.41Zm138.05 7.579-53.94 93.426-54.092-93.69A238.979 238.979 0 0 0 256 47.117a240.481 240.481 0 0 0 53.456-5.704ZM34.068 433.391l61.16-346.854A46.348 46.348 0 0 1 124.558 51.3l2.62-.977 88.568 153.4L147.23 322.4h-18.798V221.532a11.173 11.173 0 1 0-22.346 0v157.664l-10.83 64.986Zm92.653-42.1h69.139l-38.496 66.673a11.167 11.167 0 0 0 4.086 15.259l12.874 7.432h-62.497Zm209.989 89.364 12.872-7.432a11.166 11.166 0 0 0 4.086-15.259l-38.494-66.673h70.105l14.894 89.364Zm80.034-36.473-10.83-64.986V221.532a11.173 11.173 0 1 0-22.346 0V322.4h-94.117a47.747 47.747 0 0 0-58.675-6.936L384.022 50.028l3.414 1.272a46.345 46.345 0 0 1 29.337 35.236l61.159 346.855Z" style="" fill="#F51414" data-original="#010101" opacity="1"></path></g></svg>