<svg xmlns="http://www.w3.org/2000/svg" version="1.1" xmlns:xlink="http://www.w3.org/1999/xlink" width="512" height="512" x="0" y="0" viewBox="0 0 512 512" style="enable-background:new 0 0 512 512" xml:space="preserve" class=""><g><path d="m502.305 331.21-28.67-65.533c-13.087-29.914-39.479-51.38-71.182-58.203l-22.548-58.622a14.02 14.02 0 0 0-.631-4.391v-.001c-.796-2.591-2.788-6.228-7.759-8.833-12.336-6.465-36.685-3.162-57.77 2.688L273.822 58.47c.172-.179.346-.355.513-.538l26.906 17.939a39.836 39.836 0 0 0 22.162 6.71c22.03 0 39.953-17.922 39.953-39.953v-2.677C363.355 17.922 345.433 0 323.402 0a39.838 39.838 0 0 0-22.162 6.71l-26.906 17.937c-4.535-4.991-11.075-8.13-18.335-8.13-7.26 0-13.8 3.139-18.336 8.131L210.759 6.71A39.835 39.835 0 0 0 188.598 0c-22.03 0-39.953 17.922-39.953 39.953v2.677c0 22.029 17.922 39.951 39.953 39.951a39.838 39.838 0 0 0 22.162-6.71l26.906-17.937c.166.184.341.36.512.538l-39.923 79.845c-21.085-5.85-45.437-9.155-57.77-2.688-4.97 2.605-6.964 6.241-7.759 8.833v.001a14.078 14.078 0 0 0-.631 4.391l-22.548 58.622c-31.704 6.823-58.095 28.289-71.182 58.203L9.695 331.21C3.262 345.914 0 361.506 0 377.556c0 44.733 26.193 85.862 66.73 104.779l19.111 8.919C114.924 504.826 147.262 512 179.356 512c37.708 0 68.386-30.678 68.386-68.386 0-7.992-1.435-15.99-4.177-23.501A49.942 49.942 0 0 0 256 407.22a49.943 49.943 0 0 0 12.435 12.893c-2.742 7.513-4.177 15.51-4.177 23.501 0 37.708 30.678 68.386 68.386 68.386 32.094 0 64.431-7.174 93.515-20.746l19.111-8.919C485.807 463.418 512 422.29 512 377.556c0-16.05-3.262-31.642-9.695-46.346zM386.517 212.052a170.153 170.153 0 0 1-52.893 27.739l-2.639-7.916a12.893 12.893 0 0 1-.663-4.085c0-4.921 2.733-9.344 7.136-11.546l42.499-21.249 6.56 17.057zm-254.475-17.055 42.499 21.249a12.835 12.835 0 0 1 7.136 11.546c0 1.389-.223 2.764-.662 4.082l-2.639 7.918a170.142 170.142 0 0 1-52.893-27.739l6.559-17.056zm49.886 6.476-43.929-21.964 5.047-13.121c15.66 12.921 43.06 21.956 47.515 23.37 14.767 4.687 32.322 8.473 46.56 8.473 1.62 0 3.186-.059 4.71-.161l-16.539 49.615a169.458 169.458 0 0 1-30.916-3.669l2.308-6.923a29.393 29.393 0 0 0 1.509-9.303c.001-11.216-6.232-21.3-16.265-26.317zM256 66.065c1.035 0 2.054-.071 3.057-.195l38.788 77.575c-11.36 4.194-30.804 12.395-41.844 22.83-11.04-10.435-30.484-18.636-41.845-22.83l38.788-77.575c1.002.123 2.021.195 3.056.195zm0 141.728 15.381 46.139A92.514 92.514 0 0 0 256 277.471a92.479 92.479 0 0 0-15.381-23.539L256 207.793zm14.169-9.723c1.525.102 3.091.161 4.71.161 14.238 0 31.795-3.785 46.561-8.473 4.454-1.414 31.853-10.45 47.514-23.37L374 179.509l-43.929 21.964c-10.033 5.017-16.265 15.101-16.265 26.317 0 3.167.508 6.297 1.51 9.306l2.307 6.92a169.732 169.732 0 0 1-30.916 3.669l-16.538-49.615zm92.358-48.42c-3.938 5.285-20.096 16.117-46.084 24.366-26.913 8.543-45.351 8.622-51.358 6.657 3.938-5.285 20.096-16.117 46.084-24.366 26.915-8.543 45.354-8.622 51.358-6.657zM310.402 20.452a23.364 23.364 0 0 1 13-3.936c12.923 0 23.436 10.514 23.436 23.436v2.677c0 12.922-10.514 23.435-23.436 23.435a23.37 23.37 0 0 1-13-3.936l-29.655-19.77c.014-.355.027-.71.027-1.068s-.012-.713-.027-1.068l29.655-19.77zM256 33.032c4.553 0 8.258 3.705 8.258 8.258s-3.705 8.258-8.258 8.258c-4.553 0-8.258-3.705-8.258-8.258s3.705-8.258 8.258-8.258zm-54.402 29.097a23.372 23.372 0 0 1-13 3.936c-12.923 0-23.436-10.514-23.436-23.436v-2.677c0-12.922 10.514-23.435 23.436-23.435a23.37 23.37 0 0 1 13 3.936l29.655 19.77c-.014.355-.027.71-.027 1.068s.012.713.027 1.068l-29.655 19.77zm-.768 94.178c25.989 8.25 42.146 19.081 46.085 24.366-6.005 1.964-24.446 1.886-51.357-6.657-25.989-8.25-42.146-19.081-46.085-24.366 6.005-1.965 24.445-1.886 51.357 6.657zm13.88 256.596c-18.214 0-33.032-14.818-33.032-33.032v-23.285a49.828 49.828 0 0 0-5.23-22.159l-3.899-7.798-14.773 7.386 3.898 7.798a33.202 33.202 0 0 1 3.488 14.774v11.43c-8.766 7.66-19.865 11.854-31.615 11.854h-1.417v16.516h1.417c11.508 0 22.549-3.002 32.253-8.609 3.799 23.575 24.281 41.641 48.91 41.641a49.4 49.4 0 0 0 13.896-1.997c1.711 5.219 2.62 10.704 2.62 16.192 0 28.601-23.269 51.87-51.87 51.87-29.698 0-59.619-6.638-86.531-19.197l-19.111-8.919c-34.746-16.215-57.197-51.468-57.197-89.813 0-13.758 2.795-27.123 8.31-39.725l28.67-65.533c10.994-25.129 33.213-43.131 59.885-48.756 32.421 25.87 72.781 40.248 114.289 40.694 12.963 14.112 20.072 32.294 20.072 51.575v64.061c-.001 18.214-14.819 33.032-33.033 33.032zm223.576 54.466-19.111 8.919c-26.912 12.557-56.833 19.196-86.531 19.196-28.601 0-51.87-23.269-51.87-51.87 0-5.487.908-10.973 2.62-16.192a49.41 49.41 0 0 0 13.896 1.997c24.63 0 45.112-18.067 48.909-41.641 9.704 5.607 20.745 8.609 32.253 8.609h1.418v-16.516h-1.417c-11.75 0-22.849-4.194-31.615-11.854v-11.43c0-5.1 1.206-10.209 3.487-14.773l3.899-7.799-14.773-7.386-3.9 7.799a49.817 49.817 0 0 0-5.229 22.158v23.285c0 18.214-14.818 33.032-33.032 33.032s-33.032-14.818-33.032-33.032V315.81c0-19.281 7.109-37.463 20.073-51.574 41.507-.446 81.866-14.823 114.289-40.694 26.673 5.625 48.892 23.626 59.885 48.756l28.67 65.533a98.51 98.51 0 0 1 8.31 39.725c-.001 38.344-22.453 73.598-57.199 89.813z" fill="#F51414" opacity="1" data-original="#000000" class=""></path></g></svg>