<svg xmlns="http://www.w3.org/2000/svg" version="1.1" xmlns:xlink="http://www.w3.org/1999/xlink" width="512" height="512" x="0" y="0" viewBox="0 0 64 64" style="enable-background:new 0 0 512 512" xml:space="preserve" class=""><g><path d="M59 19h-2c-.78 0-1.45.46-1.78 1.11L35 8.56V7c0-1.1-.9-2-2-2h-2c-1.1 0-2 .9-2 2v1.56L8.78 20.11C8.45 19.45 7.78 19 7 19H5c-1.1 0-2 .9-2 2v22c0 .36.19.69.5.87l28 16c.15.09.33.13.5.13s.34-.04.5-.13l28-16c.31-.18.5-.51.5-.87V21c0-1.1-.9-2-2-2zM35 47.13v-2.69l20-11.43v2.69zm-6-28.57-16.25 9.29-2.35-1.34L29 15.87v2.7zM10.73 29 9 29.99v-1.98zM29 42.14 10.38 31.5l2.37-1.35L29 39.44zM9 33.01l20 11.43v2.69L9 35.7zm26 6.43 16.26-9.29 2.36 1.35L35 42.14zm0-23.58L53.62 26.5l-2.36 1.35L35 18.56zm20 12.15v1.98L53.27 29zM33 48.28l-1 .57-1-.57V37h2zM59 21v12.42l-2 1.14V21zm-4 1.29v2.7L35 13.56v-2.7zM34 21c.28 0 .53-.12.71-.3L49.24 29 35 37.14V37c0-1.1-.9-2-2-2h-2c-1.1 0-2 .9-2 2v.14L14.76 29l14.52-8.3c.18.19.43.3.71.3h4zM31 7h2v12h-2zm-2 6.56L9 24.99v-2.7l20-11.43zM7 21v13.56l-2-1.14V21zm25 36.85L5 42.42v-6.7l26.5 15.14c.15.09.33.13.5.13s.34-.04.5-.13L59 35.72v6.7z" fill="#F51414" opacity="1" data-original="#000000"></path></g></svg>