<svg id="visual" viewBox="0 0 900 600" width="900" height="600" xmlns="http://www.w3.org/2000/svg" xmlns:xlink="http://www.w3.org/1999/xlink" version="1.1"><path d="M0 85L37.5 101C75 117 150 149 225 154C300 159 375 137 450 135C525 133 600 151 675 156C750 161 825 153 862.5 149L900 145L900 0L862.5 0C825 0 750 0 675 0C600 0 525 0 450 0C375 0 300 0 225 0C150 0 75 0 37.5 0L0 0Z" fill="#f2f2f2"></path><path d="M0 163L37.5 197C75 231 150 299 225 317C300 335 375 303 450 307C525 311 600 351 675 367C750 383 825 375 862.5 371L900 367L900 143L862.5 147C825 151 750 159 675 154C600 149 525 131 450 133C375 135 300 157 225 152C150 147 75 115 37.5 99L0 83Z" fill="#eaeaea"></path><path d="M0 397L37.5 414C75 431 150 465 225 470C300 475 375 451 450 446C525 441 600 455 675 459C750 463 825 457 862.5 454L900 451L900 365L862.5 369C825 373 750 381 675 365C600 349 525 309 450 305C375 301 300 333 225 315C150 297 75 229 37.5 195L0 161Z" fill="#e2e2e2"></path><path d="M0 529L37.5 531C75 533 150 537 225 539C300 541 375 541 450 545C525 549 600 557 675 560C750 563 825 561 862.5 560L900 559L900 449L862.5 452C825 455 750 461 675 457C600 453 525 439 450 444C375 449 300 473 225 468C150 463 75 429 37.5 412L0 395Z" fill="#dadada"></path><path d="M0 601L37.5 601C75 601 150 601 225 601C300 601 375 601 450 601C525 601 600 601 675 601C750 601 825 601 862.5 601L900 601L900 557L862.5 558C825 559 750 561 675 558C600 555 525 547 450 543C375 539 300 539 225 537C150 535 75 531 37.5 529L0 527Z" fill="#d3d3d3"></path></svg>