<svg id="visual" viewBox="0 0 900 600" width="900" height="600" xmlns="http://www.w3.org/2000/svg" xmlns:xlink="http://www.w3.org/1999/xlink" version="1.1"><path d="M0 235L37.5 241C75 247 150 259 225 266C300 273 375 275 450 258C525 241 600 205 675 195C750 185 825 201 862.5 209L900 217L900 0L862.5 0C825 0 750 0 675 0C600 0 525 0 450 0C375 0 300 0 225 0C150 0 75 0 37.5 0L0 0Z" fill="#d3d3d3"></path><path d="M0 385L37.5 384C75 383 150 381 225 391C300 401 375 423 450 422C525 421 600 397 675 375C750 353 825 333 862.5 323L900 313L900 215L862.5 207C825 199 750 183 675 193C600 203 525 239 450 256C375 273 300 271 225 264C150 257 75 245 37.5 239L0 233Z" fill="#e2e2e2"></path><path d="M0 601L37.5 601C75 601 150 601 225 601C300 601 375 601 450 601C525 601 600 601 675 601C750 601 825 601 862.5 601L900 601L900 311L862.5 321C825 331 750 351 675 373C600 395 525 419 450 420C375 421 300 399 225 389C150 379 75 381 37.5 382L0 383Z" fill="#f2f2f2"></path></svg>