<svg id="visual" viewBox="0 0 900 600" width="900" height="600" xmlns="http://www.w3.org/2000/svg" xmlns:xlink="http://www.w3.org/1999/xlink" version="1.1"><path d="M0 61L37.5 64C75 67 150 73 225 81C300 89 375 99 450 100C525 101 600 93 675 96C750 99 825 113 862.5 120L900 127L900 0L862.5 0C825 0 750 0 675 0C600 0 525 0 450 0C375 0 300 0 225 0C150 0 75 0 37.5 0L0 0Z" fill="#d3d3d3"></path><path d="M0 211L37.5 209C75 207 150 203 225 201C300 199 375 199 450 200C525 201 600 203 675 215C750 227 825 249 862.5 260L900 271L900 125L862.5 118C825 111 750 97 675 94C600 91 525 99 450 98C375 97 300 87 225 79C150 71 75 65 37.5 62L0 59Z" fill="#dddddd"></path><path d="M0 367L37.5 372C75 377 150 387 225 379C300 371 375 345 450 350C525 355 600 391 675 416C750 441 825 455 862.5 462L900 469L900 269L862.5 258C825 247 750 225 675 213C600 201 525 199 450 198C375 197 300 197 225 199C150 201 75 205 37.5 207L0 209Z" fill="#e7e7e7"></path><path d="M0 601L37.5 601C75 601 150 601 225 601C300 601 375 601 450 601C525 601 600 601 675 601C750 601 825 601 862.5 601L900 601L900 467L862.5 460C825 453 750 439 675 414C600 389 525 353 450 348C375 343 300 369 225 377C150 385 75 375 37.5 370L0 365Z" fill="#f2f2f2"></path></svg>