<svg xmlns="http://www.w3.org/2000/svg" version="1.1" xmlns:xlink="http://www.w3.org/1999/xlink" width="512" height="512" x="0" y="0" viewBox="0 0 513.566 513.566" style="enable-background:new 0 0 512 512" xml:space="preserve" class=""><g><path d="M209.383 470.049 46.779 300.92c-12.998-13.52-12.575-35.016.944-48.014 13.52-12.998 35.016-12.575 48.014.944l162.604 169.129c12.998 13.52 12.575 35.016-.944 48.014-13.519 12.998-35.016 12.576-48.014-.944z" style="stroke-width:30;stroke-miterlimit:10;" fill="none" stroke="#f51414" stroke-width="30" stroke-miterlimit="10" data-original="#000000" opacity="1"></path><path d="M132.567 488.143 25.679 376.966c-12.998-13.52-12.575-35.016.944-48.014 13.52-12.998 35.016-12.575 48.014.944l106.888 111.177c12.998 13.52 12.575 35.016-.944 48.014-13.52 12.998-35.016 12.576-48.014-.944zM304.183 43.517l162.604 169.129c12.998 13.52 12.575 35.016-.944 48.014-13.52 12.998-35.016 12.575-48.014-.944L255.224 90.587c-12.998-13.52-12.575-35.016.944-48.014 13.52-12.998 35.017-12.576 48.015.944z" style="stroke-width:30;stroke-miterlimit:10;" fill="none" stroke="#f51414" stroke-width="30" stroke-miterlimit="10" data-original="#000000" opacity="1"></path><path d="M380.999 25.423 487.887 136.6c12.998 13.52 12.575 35.016-.944 48.014-13.52 12.998-35.016 12.575-48.014-.944L332.041 72.493c-12.998-13.52-12.575-35.016.944-48.014 13.52-12.998 35.016-12.576 48.014.944zM150.821 311.144l161.338-161.338M363.442 203.147 202.585 364.005" style="stroke-width:30;stroke-miterlimit:10;" fill="none" stroke="#f51414" stroke-width="30" stroke-miterlimit="10" data-original="#000000" opacity="1"></path></g></svg>