<svg xmlns="http://www.w3.org/2000/svg" xml:space="preserve" width="64" height="64" stroke="#000" stroke-width=".005" viewBox="0 0 500.462 500.462"><path d="m500.462 155.514-46.742-46.743 1.954-1.954c8.279-8.279 12.837-19.284 12.837-30.99 0-11.707-4.558-22.711-12.837-30.99-17.091-17.101-44.904-17.091-61.986 0l-1.95 1.95L344.995.043l-48.139 48.139-42.168-42.168-62.058 62.058 88.91 88.912-124.63 124.625-88.881-88.936-62.058 62.058 42.169 42.171L0 345.038l46.74 46.74-1.952 1.952c-17.087 17.091-17.087 44.899 0 61.986 8.543 8.548 19.769 12.817 30.99 12.817 11.226 0 22.452-4.269 30.995-12.817l1.952-1.952 46.654 46.654 48.216-48.059 42.178 42.179 61.986-61.986-88.881-88.936 124.644-124.648 88.91 88.912 62.063-62.063-42.169-42.168 48.136-48.135zM407.611 58.76c9.413-9.409 24.726-9.418 34.139 0 9.409 9.413 9.409 24.721 0 34.135l-1.952 1.952-17.07-17.067-17.068-17.07 1.951-1.95zm-62.616-30.871 32.819 32.82-.002.002 30.993 30.99 63.81 63.813-34.212 34.212-63.813-63.81-63.812-63.811 34.217-34.216zM92.851 441.793c-9.409 9.413-24.721 9.413-34.139 0-9.409-9.409-9.409-24.726 0-34.139l1.952-1.952 34.139 34.139-1.952 1.952zm62.548 30.798-32.75-32.75-61.986-61.986-32.817-32.817 34.216-34.211 127.606 127.611-34.269 34.153zm124.514-40.038-34.139 34.139-28.233-28.234.002-.002-77.743-77.74L33.817 254.731l34.212-34.212 104.002 104.075 32.883 32.987.041-.041 74.958 75.013zm-74.958-102.868-17.064-17.075-17.04-17.096 124.611-124.606 17.07 17.067 17.069 17.069-124.646 124.641zm261.694-83.868-34.216 34.216-74.987-74.989.002-.002-30.993-30.99-105.979-105.98 34.212-34.212 28.246 28.245-.001.001 77.736 77.733 105.98 105.978z"/></svg>