<svg xmlns="http://www.w3.org/2000/svg" version="1.1" xmlns:xlink="http://www.w3.org/1999/xlink" width="512" height="512" x="0" y="0" viewBox="0 0 60 60" style="enable-background:new 0 0 512 512" xml:space="preserve" class=""><g><g fill="#000" fill-rule="nonzero"><path d="M2 58a2 2 0 0 0 2 2h32a2 2 0 0 0 2-2V36.26l.14.43a1.82 1.82 0 0 0 1.6 1.31h2.52a1.82 1.82 0 0 0 1.6-1.27l1.06-3.32a14.45 14.45 0 0 0 3.47-1.44l3.09 1.6a1.82 1.82 0 0 0 2-.24c.31-.27.61-.55.92-.86s.58-.6.85-.91a1.82 1.82 0 0 0 .24-2l-1.6-3.09A14.45 14.45 0 0 0 55.33 23l3.32-1.06A1.83 1.83 0 0 0 60 20.25v-2.51a1.82 1.82 0 0 0-1.27-1.6l-3.32-1.06a14.45 14.45 0 0 0-1.44-3.47l1.6-3.09a1.82 1.82 0 0 0-.24-2 18.093 18.093 0 0 0-1.77-1.77 1.82 1.82 0 0 0-2-.24l-3.09 1.6A14.45 14.45 0 0 0 45 4.67l-1.14-3.36A1.82 1.82 0 0 0 42.26 0a17.66 17.66 0 0 0-2.52 0 1.82 1.82 0 0 0-1.6 1.27l-1.06 3.36a14.45 14.45 0 0 0-3.47 1.44l-3.09-1.6a1.82 1.82 0 0 0-2 .24c-.31.27-.61.55-.92.86s-.58.6-.85.91a1.82 1.82 0 0 0-.24 2l1.6 3.09a14.45 14.45 0 0 0-1.44 3.47l-2.93.96H2a2 2 0 0 0-2 2v2a2 2 0 0 0 2 2zm14-10h8v10h-8zm8-30 3.73-1.19a1 1 0 0 0 .67-.73 13.07 13.07 0 0 1 1.63-3.91 1 1 0 0 0 .05-1L28.3 7.7c.22-.24.44-.49.67-.72s.49-.46.73-.68l3.48 1.81a1 1 0 0 0 1 0 13.07 13.07 0 0 1 3.91-1.63 1 1 0 0 0 .73-.67L40 2a16.35 16.35 0 0 1 2 0l1.19 3.73a1 1 0 0 0 .73.67 13.07 13.07 0 0 1 3.91 1.63 1 1 0 0 0 1 0L52.3 6.3c.24.22.49.44.72.67s.46.48.68.73l-1.81 3.48a1 1 0 0 0 0 1 13.07 13.07 0 0 1 1.63 3.91 1 1 0 0 0 .67.73L58 18v2l-3.73 1.19a1 1 0 0 0-.67.73 13.07 13.07 0 0 1-1.63 3.91 1 1 0 0 0 0 1l1.73 3.47c-.22.24-.44.49-.67.72s-.49.46-.73.68l-3.48-1.81a1 1 0 0 0-1 .05 13.07 13.07 0 0 1-3.91 1.63 1 1 0 0 0-.73.67L42 36c-.666.04-1.334.04-2 0l-1.19-3.73a1 1 0 0 0-.73-.67 13.07 13.07 0 0 1-3.91-1.63 1 1 0 0 0-1-.05L29.7 31.7c-.24-.22-.49-.44-.72-.67s-.46-.48-.68-.73l1.81-3.48a1 1 0 0 0-.05-1 13.07 13.07 0 0 1-1.63-3.91 1 1 0 0 0-.67-.73L24 20v-2zM2 18h20v2H2zm21.74 4 2.89.92a14.45 14.45 0 0 0 1.44 3.47l-1.6 3.09a1.82 1.82 0 0 0 .24 2c.27.31.55.61.86.92s.6.58.91.85a1.82 1.82 0 0 0 2 .24l3.09-1.6c.772.447 1.586.82 2.43 1.11v25H26V48h1a1 1 0 0 0 0-2H13a1 1 0 0 0 0 2h1v10H4V22z" fill="#f51414" opacity="1" data-original="#000000" class=""></path><path d="M12 36H8a2 2 0 0 0-2 2v4a2 2 0 0 0 2 2h4a2 2 0 0 0 2-2v-4a2 2 0 0 0-2-2zm-4 6v-4h4v4zM22 36h-4a2 2 0 0 0-2 2v4a2 2 0 0 0 2 2h4a2 2 0 0 0 2-2v-4a2 2 0 0 0-2-2zm-4 6v-4h4v4zM26 42a2 2 0 0 0 2 2h4a2 2 0 0 0 2-2v-4a2 2 0 0 0-2-2h-4a2 2 0 0 0-2 2zm2-4h4v4h-4zM6 31a2 2 0 0 0 2 2h4a2 2 0 0 0 2-2v-4a2 2 0 0 0-2-2H8a2 2 0 0 0-2 2zm6-4v4H8v-4zM16 31a2 2 0 0 0 2 2h4a2 2 0 0 0 2-2v-4a2 2 0 0 0-2-2h-4a2 2 0 0 0-2 2zm6-4v4h-4v-4zM41 30c6.075 0 11-4.925 11-11S47.075 8 41 8s-11 4.925-11 11 4.925 11 11 11zm-2-2.23v-3.58a1 1 0 0 0-.5-.87A5 5 0 0 1 38 15v3a2.07 2.07 0 0 0 .58 1.42l1 1a2.07 2.07 0 0 0 2.84 0l1-1c.37-.38.578-.89.58-1.42v-3a5 5 0 0 1-.47 8.33 1 1 0 0 0-.5.87v3.58a8.81 8.81 0 0 1-4 0zM41 10a9 9 0 0 1 4 17.05v-2.31a7 7 0 0 0 .15-11.37 2 2 0 0 0-2-.16A2 2 0 0 0 42 15v3l-1 1-1-1v-3a2 2 0 0 0-1.11-1.8 2 2 0 0 0-2 .17A7 7 0 0 0 37 24.74v2.31a9 9 0 0 1 4-17z" fill="#f51414" opacity="1" data-original="#000000" class=""></path></g></g></svg>