<svg xmlns="http://www.w3.org/2000/svg" version="1.1" xmlns:xlink="http://www.w3.org/1999/xlink" width="512" height="512" x="0" y="0" viewBox="0 0 512 512" style="enable-background:new 0 0 512 512" xml:space="preserve"><g><path d="m96.315 486.342 13.952 13.952c5.608 5.608 14.701 5.608 20.309 0l20.462-20.462a35.009 35.009 0 0 1 17.079-9.402l26.583-5.974a35.013 35.013 0 0 0 17.079-9.402l71.102-71.102M31.099 362.032l-19.392 19.392c-5.608 5.608-5.608 14.701 0 20.309l59.711 59.711M146.03 247.1l19.7-19.7c9.45-9.45 24.76-9.45 34.21 0a24.14 24.14 0 0 1 7.09 17.11c0 6.19-2.37 12.38-7.09 17.1l-19.74 19.74" style="stroke-width:15;stroke-linecap:round;stroke-linejoin:round;stroke-miterlimit:10;" fill="none" stroke="#f51414" stroke-width="15" stroke-linecap="round" stroke-linejoin="round" stroke-miterlimit="10" data-original="#000000" opacity="1"></path><path d="m180.2 281.35 19.74-19.74c9.45-9.44 24.77-9.44 34.22 0 4.72 4.73 7.08 10.92 7.08 17.11s-2.36 12.38-7.08 17.11l-36.81 36.8c-9.45 9.45-24.77 9.45-34.21 0a24.019 24.019 0 0 1-6.48-11.72" style="stroke-width:15;stroke-linecap:round;stroke-linejoin:round;stroke-miterlimit:10;" fill="none" stroke="#f51414" stroke-width="15" stroke-linecap="round" stroke-linejoin="round" stroke-miterlimit="10" data-original="#000000" opacity="1"></path><path d="M197.348 366.846h0c-9.448-9.448-9.448-24.765 0-34.213l36.807-36.807c9.448-9.448 24.765-9.448 34.213 0h0c9.448 9.448 9.448 24.765 0 34.213l-36.807 36.807c-9.448 9.448-24.765 9.448-34.213 0z" style="stroke-width:15;stroke-linecap:round;stroke-linejoin:round;stroke-miterlimit:10;" fill="none" stroke="#f51414" stroke-width="15" stroke-linecap="round" stroke-linejoin="round" stroke-miterlimit="10" data-original="#000000" opacity="1"></path><path d="M231.561 401.059h0c-9.448-9.448-9.448-24.765 0-34.213l25.424-25.424c9.448-9.448 24.765-9.448 34.213 0h0c9.448 9.448 9.448 24.765 0 34.213l-25.424 25.424c-9.448 9.448-24.766 9.448-34.213 0zM110.613 382.937a64.308 64.308 0 0 0 17.856-56.652l-6.07-34.388 22.521 22.521c9.448 9.448 24.765 9.448 34.213 0h0c9.448-9.448 9.448-24.765 0-34.213l-37.724-37.724a23.353 23.353 0 0 0-26.059-4.8L89.672 249.18a41.04 41.04 0 0 0-12.246 8.436l-21.391 21.391a29.63 29.63 0 0 0-8.378 16.747l-6.659 46.487a35.003 35.003 0 0 1-9.9 19.79l-6.801 6.801M442.396 52.368l57.898 57.898c5.608 5.608 5.608 14.701 0 20.309l-20.462 20.462a35.009 35.009 0 0 0-9.402 17.079l-5.974 26.583a35.013 35.013 0 0 1-9.402 17.079l-71.102 71.102M362.032 31.099l19.392-19.392c5.608-5.608 14.701-5.608 20.309 0l15.879 15.879M264.21 128.92l-17.11 17.11-19.7 19.7c-9.45 9.45-9.45 24.76 0 34.21a24.14 24.14 0 0 0 17.11 7.09c6.19 0 12.38-2.37 17.1-7.09l19.7-19.7" style="stroke-width:15;stroke-linecap:round;stroke-linejoin:round;stroke-miterlimit:10;" fill="none" stroke="#f51414" stroke-width="15" stroke-linecap="round" stroke-linejoin="round" stroke-miterlimit="10" data-original="#000000" opacity="1"></path><path d="m315.53 214.46-19.7 19.7c-4.73 4.72-10.92 7.08-17.11 7.08s-12.38-2.36-17.11-7.08c-9.44-9.45-9.44-24.77 0-34.22l19.7-19.7" style="stroke-width:15;stroke-linecap:round;stroke-linejoin:round;stroke-miterlimit:10;" fill="none" stroke="#f51414" stroke-width="15" stroke-linecap="round" stroke-linejoin="round" stroke-miterlimit="10" data-original="#000000" opacity="1"></path><path d="m349.74 248.67-8.53 8.54c-.09.07-.16.14-.22.22l-10.95 10.94c-4.72 4.73-10.92 7.09-17.11 7.09s-12.38-2.36-17.1-7.09c-9.45-9.45-9.45-24.77 0-34.21l19.7-19.7" style="stroke-width:15;stroke-linecap:round;stroke-linejoin:round;stroke-miterlimit:10;" fill="none" stroke="#f51414" stroke-width="15" stroke-linecap="round" stroke-linejoin="round" stroke-miterlimit="10" data-original="#000000" opacity="1"></path><path d="m349.74 248.67-8.32 8.31c-.08.08-.15.15-.21.23-.09.07-.16.14-.22.22-9.02 9.48-8.87 24.47.43 33.77 4.72 4.72 10.92 7.08 17.11 7.08s12.39-2.36 17.11-7.08l8.31-8.32 17.11-17.11M368.833 24.298l-6.801 6.801a35.012 35.012 0 0 1-19.79 9.9l-46.487 6.659a29.62 29.62 0 0 0-16.747 8.378l-21.391 21.391a41.04 41.04 0 0 0-8.436 12.246l-11.499 25.677a23.353 23.353 0 0 0 4.8 26.059l4.621 4.621M82.9 175.552l17.858-1.277M93.283 127.822l15.714 8.58M127.823 93.283l8.58 15.713M175.552 82.9l-1.277 17.858M336.448 429.1l1.277-17.858M384.178 418.717l-8.58-15.714M418.717 384.177l-15.713-8.58M429.1 336.448l-17.858 1.277" style="stroke-width:15;stroke-linecap:round;stroke-linejoin:round;stroke-miterlimit:10;" fill="none" stroke="#f51414" stroke-width="15" stroke-linecap="round" stroke-linejoin="round" stroke-miterlimit="10" data-original="#000000" opacity="1"></path></g></svg>