<svg width="32" height="32" viewBox="0 0 32 32" fill="none" xmlns="http://www.w3.org/2000/svg">
<path d="M23.8934 8.82667C23.7581 8.50087 23.4992 8.24197 23.1734 8.10667C23.0131 8.03835 22.8409 8.00211 22.6667 8H9.33337C8.97975 8 8.64061 8.14048 8.39057 8.39052C8.14052 8.64057 8.00004 8.97971 8.00004 9.33333C8.00004 9.68696 8.14052 10.0261 8.39057 10.2761C8.64061 10.5262 8.97975 10.6667 9.33337 10.6667H19.4534L8.38671 21.72C8.26174 21.844 8.16254 21.9914 8.09485 22.1539C8.02716 22.3164 7.99231 22.4907 7.99231 22.6667C7.99231 22.8427 8.02716 23.017 8.09485 23.1794C8.16254 23.3419 8.26174 23.4894 8.38671 23.6133C8.51066 23.7383 8.65813 23.8375 8.8206 23.9052C8.98308 23.9729 9.15736 24.0077 9.33337 24.0077C9.50939 24.0077 9.68366 23.9729 9.84614 23.9052C10.0086 23.8375 10.1561 23.7383 10.28 23.6133L21.3334 12.5467V22.6667C21.3334 23.0203 21.4738 23.3594 21.7239 23.6095C21.9739 23.8595 22.3131 24 22.6667 24C23.0203 24 23.3595 23.8595 23.6095 23.6095C23.8596 23.3594 24 23.0203 24 22.6667V9.33333C23.9979 9.1591 23.9617 8.98696 23.8934 8.82667Z" fill="#F41E1E"/>
</svg>
