<svg xmlns="http://www.w3.org/2000/svg" xml:space="preserve" width="64" height="64" viewBox="0 0 64.135 64.135"><path d="M39.172 54.864v-5.009c.038-.049.079-.098.107-.152.235-.461 5.777-11.355 5.777-16.371 0-7.162-5.827-12.988-12.99-12.988s-12.99 5.826-12.99 12.988c0 4.205 4.636 13.361 5.91 15.797-.005.041-.024.076-.024.119v5.616a1 1 0 0 0 1 1H38.17a1 1 0 0 0 1.002-1zM30.18 37.275h3.775v10.846c0 .045.02.084.024.127h-3.826c.005-.043.025-.082.025-.127l.002-10.846zm1.888-14.931c6.06 0 10.99 4.93 10.99 10.988 0 3.947-4.169 12.653-5.287 14.916H35.93c.005-.043.025-.082.025-.127V37.275h1.025a1 1 0 1 0 0-2h-1.025v-.5a1 1 0 1 0-2 0v.5H30.18v-.5a1 1 0 1 0-2 0v.5h-1.335a1 1 0 1 0 0 2h1.335v10.846c0 .045.02.084.025.127h-1.422c-1.822-3.467-5.705-11.555-5.705-14.916 0-6.059 4.93-10.988 10.99-10.988zM29.18 57.117a1 1 0 1 0 0 2h5.775a1 1 0 1 0 0-2H29.18zM33.068 13.04V6.018a1 1 0 0 0-2 0v7.022a1 1 0 1 0 2 0zM49.085 21.087a.997.997 0 0 0 .707-.293l4.965-4.966a.999.999 0 1 0-1.414-1.414l-4.965 4.966a.999.999 0 0 0 .707 1.707zM45.551 7.988a1 1 0 0 0-1.328.487l-2.95 6.371a1 1 0 0 0 1.815.84l2.95-6.371a1 1 0 0 0-.487-1.327zM20.344 7.237a.998.998 0 0 0-.565 1.296l2.565 6.534a.999.999 0 1 0 1.861-.73L21.64 7.803a1.003 1.003 0 0 0-1.296-.566zM1.812 26.417a.998.998 0 0 0 .61 1.275l6.622 2.34a.998.998 0 1 0 .666-1.884l-6.622-2.34a1 1 0 0 0-1.276.609zM61.713 46.514l-6.622-2.338a1 1 0 1 0-.666 1.886l6.622 2.337a1.002 1.002 0 0 0 1.276-.61 1 1 0 0 0-.61-1.275zM11.258 47.049a1 1 0 0 0-1.334-.471l-6.335 3.028a1 1 0 0 0 .432 1.901c.145 0 .292-.03.431-.098l6.335-3.029a.997.997 0 0 0 .471-1.331zM54.211 27.629l6.335-3.027a1 1 0 1 0-.862-1.805l-6.335 3.027a1 1 0 1 0 .862 1.805zM14.146 21.01a.998.998 0 0 0 1.414-.018c.034-.035.048-.08.077-.118.039-.029.084-.045.12-.08a.999.999 0 0 0 0-1.414l-4.963-4.966a1 1 0 0 0-1.415 0c-.049.05-.074.111-.111.167-.055.037-.117.063-.165.112a.999.999 0 0 0 .018 1.414l5.025 4.903zM9.017 37.898c-.02-.553-.498-1.02-1.034-.965l-7.017.242A1.002 1.002 0 0 0 1 39.176c.012 0 .023 0 .035-.002l7.017-.242a.999.999 0 0 0 .965-1.034zM63.1 35.033l-7.017.243a1 1 0 0 0 .034 1.999l.035-.001 7.017-.243a1 1 0 0 0 .965-1.033c-.019-.553-.483-1.015-1.034-.965z"/></svg>