<svg xmlns="http://www.w3.org/2000/svg" version="1.1" xmlns:xlink="http://www.w3.org/1999/xlink" width="512" height="512" x="0" y="0" viewBox="0 0 480 480" style="enable-background:new 0 0 512 512" xml:space="preserve"><g><path d="M456 0H24a8 8 0 0 0-8 8v448a8 8 0 0 0 8 8h16v16h16v-16h80v16h16v-16h32v16h16v-16h80v16h16v-16h32v16h16v-16h80v16h16v-16h16a8 8 0 0 0 8-8V8a8 8 0 0 0-8-8zM160 448H32V16h128v432zm144 0H176V16h128v432zm144 0H320V16h128v432z" fill="#f51414" opacity="1" data-original="#000000"></path><path d="M56 40h80v16H56zM56 72h80v16H56zM56 104h80v16H56zM56 344h80v16H56zM56 376h80v16H56zM56 408h80v16H56zM56 192h16v16H56zM56 224h16v56H56zM200 40h80v16h-80zM200 72h80v16h-80zM200 104h80v16h-80zM200 344h80v16h-80zM200 376h80v16h-80zM200 408h80v16h-80zM200 192h16v16h-16zM200 224h16v56h-16zM344 40h80v16h-80zM344 72h80v16h-80zM344 104h80v16h-80zM344 344h80v16h-80zM344 376h80v16h-80zM344 408h80v16h-80zM344 192h16v16h-16zM344 224h16v56h-16z" fill="#f51414" opacity="1" data-original="#000000"></path></g></svg>