<!DOCTYPE svg PUBLIC "-//W3C//DTD SVG 1.1//EN" "http://www.w3.org/Graphics/SVG/1.1/DTD/svg11.dtd">
<!-- Uploaded to: SVG Repo, www.svgrepo.com, Transformed by: SVG Repo Mixer Tools -->
<svg height="800px" width="800px" version="1.1" id="Layer_1" xmlns="http://www.w3.org/2000/svg" xmlns:xlink="http://www.w3.org/1999/xlink" viewBox="0 0 512 512" xml:space="preserve" fill="#f2f2f2" stroke="#f2f2f2">
<g id="SVGRepo_bgCarrier" stroke-width="0"/>
<g id="SVGRepo_tracerCarrier" stroke-linecap="round" stroke-linejoin="round"/>
<g id="SVGRepo_iconCarrier"> <g transform="translate(1 1)"> <path style="fill:#E2E3E5;" d="M311.32,502.467h-98.987c-16.213,0-29.013-12.8-29.013-29.013V36.547 c0-16.213,12.8-29.013,29.013-29.013h98.987c16.213,0,29.013,12.8,29.013,29.013v436.907 C340.333,489.667,327.533,502.467,311.32,502.467"/> <path style="fill:#CCCCCC;" d="M294.253,502.467h-98.987c-16.213,0-29.013-12.8-29.013-29.013V36.547 c0-16.213,12.8-29.013,29.013-29.013h98.987c16.213,0,29.013,12.8,29.013,29.013v436.907 C323.267,489.667,310.467,502.467,294.253,502.467"/> <path style="fill:#F2f2f2;" d="M169.667,502.467H70.68c-16.213,0-29.013-12.8-29.013-29.013V36.547 c0-16.213,12.8-29.013,29.013-29.013h98.987c16.213,0,29.013,12.8,29.013,29.013v436.907 C198.68,489.667,185.88,502.467,169.667,502.467"/> <path style="fill:#E2E3E5;" d="M260.12,502.467H96.28c-16.213,0-29.013-12.8-29.013-29.013V36.547 c0-16.213,12.8-29.013,29.013-29.013h163.84c16.213,0,29.013,12.8,29.013,29.013v436.907 C289.133,489.667,276.333,502.467,260.12,502.467"/> <polygon style="fill:#E0E0E0;" points="468.333,109.933 161.133,109.933 161.133,272.067 195.267,272.067 195.267,323.267 263.533,272.067 468.333,272.067 "/> <g> <polygon style="fill:#F2f2f20F0F0;" points="442.733,109.933 161.133,109.933 161.133,272.067 195.267,272.067 195.267,323.267 263.533,272.067 442.733,272.067 "/> <path style="fill:#F2f2f20F0F0;" d="M203.8,451.267c0,14.507-11.093,25.6-25.6,25.6c-14.507,0-25.6-11.093-25.6-25.6 s11.093-25.6,25.6-25.6S203.8,436.76,203.8,451.267"/> </g> <g> <path style="fill:#B6B6B6;" d="M169.667,485.4c-18.773,0-34.133-15.36-34.133-34.133s15.36-34.133,34.133-34.133 s34.133,15.36,34.133,34.133S188.44,485.4,169.667,485.4z M169.667,434.2c-9.387,0-17.067,7.68-17.067,17.067 s7.68,17.067,17.067,17.067s17.067-7.68,17.067-17.067S179.053,434.2,169.667,434.2z"/> <path style="fill:#B6B6B6;" d="M314.733,408.6H41.667c-5.12,0-8.533-3.413-8.533-8.533s3.413-8.533,8.533-8.533h273.067 c5.12,0,8.533,3.413,8.533,8.533S319.853,408.6,314.733,408.6z"/> <path style="fill:#B6B6B6;" d="M314.733,67.267H41.667c-5.12,0-8.533-3.413-8.533-8.533s3.413-8.533,8.533-8.533h273.067 c5.12,0,8.533,3.413,8.533,8.533S319.853,67.267,314.733,67.267z"/> <path style="fill:#B6B6B6;" d="M178.2,41.667h-34.133c-5.12,0-8.533-3.413-8.533-8.533s3.413-8.533,8.533-8.533H178.2 c5.12,0,8.533,3.413,8.533,8.533S183.32,41.667,178.2,41.667z"/> <path style="fill:#B6B6B6;" d="M212.333,41.667H203.8c-5.12,0-8.533-3.413-8.533-8.533S198.68,24.6,203.8,24.6h8.533 c5.12,0,8.533,3.413,8.533,8.533S217.453,41.667,212.333,41.667z"/> <path style="fill:#B6B6B6;" d="M195.267,331.8c-1.707,0-2.56,0-3.413-0.853c-3.413-1.707-5.12-4.267-5.12-7.68V280.6h-25.6 c-5.12,0-8.533-3.413-8.533-8.533V109.933c0-5.12,3.413-8.533,8.533-8.533h307.2c5.12,0,8.533,3.413,8.533,8.533v162.133 c0,5.12-3.413,8.533-8.533,8.533h-202.24l-65.707,49.493C198.68,330.947,196.973,331.8,195.267,331.8z M169.667,263.533h25.6 c5.12,0,8.533,3.413,8.533,8.533V306.2l54.613-40.96c1.707-0.853,3.413-1.707,5.12-1.707H459.8V118.467H169.667V263.533z"/> <path style="fill:#B6B6B6;" d="M285.72,511H70.68c-20.48,0-37.547-17.067-37.547-37.547V36.547C33.133,16.067,50.2-1,70.68-1 h215.04c20.48,0,37.547,17.067,37.547,37.547v73.387c0,5.12-3.413,8.533-8.533,8.533H169.667v145.067h25.6 c5.12,0,8.533,3.413,8.533,8.533V306.2l54.613-40.96c1.707-0.853,3.413-1.707,5.12-1.707h51.2c5.12,0,8.533,3.413,8.533,8.533 v201.387C323.267,493.933,306.2,511,285.72,511z M70.68,16.067c-11.093,0-20.48,9.387-20.48,20.48v436.907 c0,11.093,9.387,20.48,20.48,20.48h215.04c11.093,0,20.48-9.387,20.48-20.48V280.6h-40.107l-65.707,49.493 c-2.56,1.707-5.973,2.56-8.533,0.853c-3.413-1.707-5.12-4.267-5.12-7.68V280.6h-25.6c-5.12,0-8.533-3.413-8.533-8.533V109.933 c0-5.12,3.413-8.533,8.533-8.533H306.2V36.547c0-11.093-9.387-20.48-20.48-20.48H70.68z"/> <path style="fill:#B6B6B6;" d="M297.667,178.2h-85.333c-5.12,0-8.533-3.413-8.533-8.533c0-5.12,3.413-8.533,8.533-8.533h85.333 c5.12,0,8.533,3.413,8.533,8.533C306.2,174.787,302.787,178.2,297.667,178.2z"/> <path style="fill:#B6B6B6;" d="M417.133,220.867h-204.8c-5.12,0-8.533-3.413-8.533-8.533c0-5.12,3.413-8.533,8.533-8.533h204.8 c5.12,0,8.533,3.413,8.533,8.533C425.667,217.453,422.253,220.867,417.133,220.867z"/> </g> </g> </g>
</svg>