<svg xmlns="http://www.w3.org/2000/svg" xml:space="preserve" id="Layer_1" x="0" y="0" style="enable-background:new 0 0 1149 181" version="1.1" viewBox="0 0 1149 181">
  <style>.st2{fill:#11ea25}.st3{fill:#d41e20}</style>
  <g id="Layer_1_00000065755554780933892530000008130504520573218204_">
    <path d="M223.6 51.5H14.9c-3 0-5.4-2.4-5.4-5.4V14.9c0-3 2.4-5.4 5.4-5.4h208.6c3 0 5.4 2.4 5.4 5.4V46c.1 3.1-2.3 5.5-5.3 5.5z" class="st3"/>
    <path d="M9.5 103.6V37.4c0-3 2.4-5.4 5.4-5.4H54c3 0 5.4 2.4 5.4 5.4v66.1c0 3-2.4 5.4-5.4 5.4H14.9c-3 .1-5.4-2.3-5.4-5.3z" class="st3"/>
    <path d="M224.4 111.5H15.8c-3 0-5.4-2.4-5.4-5.4V75c0-3 2.4-5.4 5.4-5.4h208.6c3 0 5.4 2.4 5.4 5.4v31.1c0 3-2.4 5.4-5.4 5.4z" class="st3"/>
    <path d="M178.5 165.6V75.4c0-3 2.4-5.4 5.4-5.4H225c3 0 5.4 2.4 5.4 5.4v90.1c0 3-2.4 5.4-5.4 5.4h-41.1c-3 .1-5.4-2.3-5.4-5.3z" class="st3"/>
    <path d="M223.5 171.2H14.8c-3 0-5.4-2.4-5.4-5.4v-31.1c0-3 2.4-5.4 5.4-5.4h208.6c3 0 5.4 2.4 5.4 5.4v31.1c.1 3-2.3 5.4-5.3 5.4zM260.2 165.6V15.4c0-3 2.4-5.4 5.4-5.4h36.5c3 0 5.4 2.4 5.4 5.4v150.2c0 3-2.4 5.4-5.4 5.4h-36.5c-3 .1-5.4-2.4-5.4-5.4z" class="st3"/>
    <path d="M474.6 171.1H266c-3 0-5.4-2.4-5.4-5.4v-31.1c0-3 2.4-5.4 5.4-5.4h208.6c3 0 5.4 2.4 5.4 5.4v31.1c0 3-2.4 5.4-5.4 5.4z" class="st3"/>
    <path d="M434.5 165.2V15c0-3 2.4-5.4 5.4-5.4h34.6c3 0 5.4 2.4 5.4 5.4v150.2c0 3-2.4 5.4-5.4 5.4h-34.6c-3 .1-5.4-2.4-5.4-5.4zM511.7 165.4V15.2c0-3 2.4-5.4 5.4-5.4h34.5c3 0 5.4 2.4 5.4 5.4v150.2c0 3-2.4 5.4-5.4 5.4h-34.5c-3 .1-5.4-2.4-5.4-5.4z" class="st3"/>
    <path d="M729.1 52.3H517c-3 0-5.4-2.4-5.4-5.4V15.4c0-3 2.4-5.4 5.4-5.4h195.3c12.2 0 22.2 9.9 22.2 22.2V47c0 2.9-2.4 5.3-5.4 5.3zM691.3 110.5H533.1c-11.7 0-21.2-9.5-21.2-21.2s9.5-21.2 21.2-21.2h158.2c11.7 0 21.2 9.5 21.2 21.2s-9.5 21.2-21.2 21.2z" class="st3"/>
    <path d="M689.7 156.2V24.5c0-8.1 6.6-14.7 14.7-14.7 10 0 18.1 8.1 18.1 18.1v124.8c0 10-8.1 18.1-18.1 18.1-8.1.1-14.7-6.5-14.7-14.6z" class="st3"/>
    <path d="M729.1 128.2H517.3c-3 0-5.4 2.4-5.4 5.4v31.9c0 3 2.4 5.4 5.4 5.4h195.2c12.1 0 21.9-9.8 21.9-21.9v-15.5c.1-2.9-2.3-5.3-5.3-5.3z" class="st3"/>
    <path d="M689.4 69.3H557.6c-3.4 0-6.1-2.7-6.1-6.1v-6.8c0-4.2 3.4-7.6 7.5-7.6h128.9c4.2 0 7.5 3.4 7.5 7.6v6.8c.1 3.3-2.6 6.1-6 6.1z" style="fill:none"/>
    <path d="M695.5 149.9v-41.1c0-9.3 7.5-16.8 16.8-16.8h5.9c9.3 0 16.8 7.5 16.8 16.8v41.1c0 9.3-7.5 16.8-16.8 16.8h-5.9c-9.3-.1-16.8-7.6-16.8-16.8zM695.5 64.5V34.6c0-9.3 7.5-16.8 16.8-16.8h5.9c9.3 0 16.8 7.5 16.8 16.8v29.9c0 9.3-7.5 16.8-16.8 16.8h-5.9c-9.2 0-16.8-7.5-16.8-16.8z" class="st3"/>
    <path d="M762.7 74h131.8v40.1H762.7zM1133.9 55.3H925.3c-3 0-5.4-2.4-5.4-5.4V20.4c0-3 2.4-5.4 5.4-5.4h208.6c3 0 5.4 2.4 5.4 5.4v29.4c.1 3.1-2.4 5.5-5.4 5.5z"/>
    <path d="M919.5 165.6V23.5c0-3 2.4-5.4 5.4-5.4H958c3 0 5.4 2.4 5.4 5.4v142.1c0 3-2.4 5.4-5.4 5.4h-33.1c-3 0-5.4-2.4-5.4-5.4z"/>
    <path d="M1131.1 171H926.2c-3 0-5.4-2.4-5.4-5.4v-27.5c0-3 2.4-5.4 5.4-5.4h204.9c3 0 5.4 2.4 5.4 5.4v27.5c0 3-2.4 5.4-5.4 5.4z"/>
    <path d="M1093.5 164.8V77.4c0-3 2.4-5.4 5.4-5.4h34.7c3 0 5.4 2.4 5.4 5.4v87.4c0 3-2.4 5.4-5.4 5.4h-34.7c-3 .1-5.4-2.3-5.4-5.4z"/>
    <path d="M1130.1 113H1026c-3 0-5.4-2.4-5.4-5.4V77.4c0-3 2.4-5.4 5.4-5.4h104.1c3 0 5.4 2.4 5.4 5.4v30.1c0 3-2.4 5.5-5.4 5.5z"/>
    <path d="M436.5 167.9V13.1c0-1.7 1.4-3.1 3.1-3.1 1.7 0 3.1 1.4 3.1 3.1v154.8c0 1.7-1.4 3.1-3.1 3.1-1.7 0-3.1-1.4-3.1-3.1zM307.2 13.1v154.8c0 1.7-1.4 3.1-3.1 3.1-1.7 0-3.1-1.4-3.1-3.1V13.1c0-1.7 1.4-3.1 3.1-3.1 1.7-.1 3.1 1.3 3.1 3.1zM699.9 71.6l17.3-20.8 15.2 12.6c2.7 2.2 3 6.2.8 8.8l-13.3 15.9-20-16.5z" class="st3"/>
    <path d="M712.5 117.5 698 94.7l21.9-14 11.9 18.7c1.5 2.3.8 5.3-1.5 6.7l-17.8 11.4z" class="st3"/>
  </g>
</svg>