<?xml version="1.0" encoding="utf-8"?>
<!-- Generator: Adobe Illustrator 28.3.0, SVG Export Plug-In . SVG Version: 6.00 Build 0)  -->
<svg version="1.1" id="Layer_1" xmlns="http://www.w3.org/2000/svg" xmlns:xlink="http://www.w3.org/1999/xlink" x="0px" y="0px"
	 viewBox="0 0 1149 181" style="enable-background:new 0 0 1149 181;" xml:space="preserve">
<style type="text/css">
	.st0{display:none;}
	.st1{display:inline;}
	.st2{fill:#11EA25;}
	.st3{fill:#D41E20;}
	.st4{fill:none;}
</style>
<g id="Layer_2_00000096763060665382857610000014006042584921828785_" class="st0">
	<g class="st1">
		<path class="st2" d="M223.8,49.4H11c-3,0-5.4-2.4-5.4-5.4V11.4C5.6,8.4,8,6,11,6h212.7c3,0,5.4,2.4,5.4,5.4V44
			C229.2,47,226.8,49.4,223.8,49.4z"/>
		<path class="st2" d="M5.6,103.5V34.7c0-3,2.4-5.4,5.4-5.4h40c3,0,5.4,2.4,5.4,5.4v68.8c0,3-2.4,5.4-5.4,5.4H11
			C8,108.9,5.6,106.5,5.6,103.5z"/>
		<path class="st2" d="M224.6,111.5H11.9c-3,0-5.4-2.4-5.4-5.4V73.5c0-3,2.4-5.4,5.4-5.4h212.7c3,0,5.4,2.4,5.4,5.4v32.6
			C230,109.1,227.6,111.5,224.6,111.5z"/>
		<path class="st2" d="M177.8,167.6V74c0-3,2.4-5.4,5.4-5.4h42.1c3,0,5.4,2.4,5.4,5.4v93.6c0,3-2.4,5.4-5.4,5.4h-42.1
			C180.2,173,177.8,170.6,177.8,167.6z"/>
		<path class="st2" d="M223.6,173.2H10.9c-3,0-5.4-2.4-5.4-5.4v-32.6c0-3,2.4-5.4,5.4-5.4h212.7c3,0,5.4,2.4,5.4,5.4v32.6
			C229.1,170.8,226.6,173.2,223.6,173.2z"/>
		<path class="st2" d="M260.9,167.7V12c0-3,2.4-5.4,5.4-5.4h37.3c3,0,5.4,2.4,5.4,5.4v155.7c0,3-2.4,5.4-5.4,5.4h-37.3
			C263.4,173.1,260.9,170.7,260.9,167.7z"/>
		<path class="st2" d="M479.5,173.2H266.8c-3,0-5.4-2.4-5.4-5.4v-32.6c0-3,2.4-5.4,5.4-5.4h212.7c3,0,5.4,2.4,5.4,5.4v32.6
			C484.9,170.7,482.5,173.2,479.5,173.2z"/>
		<path class="st2" d="M438.5,167.2V11.5c0-3,2.4-5.4,5.4-5.4h35.4c3,0,5.4,2.4,5.4,5.4v155.7c0,3-2.4,5.4-5.4,5.4H444
			C440.9,172.7,438.5,170.2,438.5,167.2z"/>
		<path class="st2" d="M517.1,167.5V11.8c0-3,2.4-5.4,5.4-5.4h35.3c3,0,5.4,2.4,5.4,5.4v155.7c0,3-2.4,5.4-5.4,5.4h-35.3
			C519.6,172.9,517.1,170.5,517.1,167.5z"/>
		<path class="st2" d="M738.6,50.3H522.5c-3,0-5.4-2.4-5.4-5.4V12c0-3,2.4-5.4,5.4-5.4h199.5c12.2,0,22.2,9.9,22.2,22.1v16.2
			C744.1,47.9,741.7,50.3,738.6,50.3z"/>
		<path class="st2" d="M700.5,110.5h-162c-11.7,0-21.2-9.5-21.2-21.2v-1.4c0-11.7,9.5-21.2,21.2-21.2h162c11.7,0,21.2,9.5,21.2,21.2
			v1.4C721.7,101,712.2,110.5,700.5,110.5z"/>
		<path class="st2" d="M698.4,158.2V21c0-8.1,6.6-14.7,14.7-14.7h0.6c10,0,18.1,8.1,18.1,18.1v130.4c0,10-8.1,18.1-18.1,18.1h-0.6
			C705,172.9,698.4,166.3,698.4,158.2z"/>
		<path class="st2" d="M738.6,128.7H522.8c-3,0-5.4,2.4-5.4,5.4v33.4c0,3,2.4,5.4,5.4,5.4h199.4c12.1,0,21.9-9.8,21.9-21.9v-16.9
			C744.1,131.2,741.7,128.7,738.6,128.7z"/>
		<path class="st2" d="M698.2,67.8H563.8c-3.4,0-6.1-2.7-6.1-6.1v-7.5c0-4.2,3.4-7.6,7.5-7.6h131.6c4.2,0,7.5,3.4,7.5,7.6v7.5
			C704.4,65.1,701.6,67.8,698.2,67.8z"/>
		<path class="st2" d="M704.4,151.8v-43.7c0-9.3,7.5-16.8,16.8-16.8h6.6c9.3,0,16.8,7.5,16.8,16.8v43.7c0,9.3-7.5,16.8-16.8,16.8
			h-6.6C711.9,168.5,704.4,161,704.4,151.8z"/>
		<path class="st2" d="M704.4,63.5V31.3c0-9.3,7.5-16.8,16.8-16.8h6.6c9.3,0,16.8,7.5,16.8,16.8v32.1c0,9.3-7.5,16.8-16.8,16.8h-6.6
			C711.9,80.2,704.4,72.7,704.4,63.5z"/>
		<rect x="753.8" y="73.7" class="st2" width="152.7" height="47.3"/>
		<g>
			<path class="st2" d="M1135.1,53.4H922.4c-3,0-5.4-2.4-5.4-5.4V17.1c0-3,2.4-5.4,5.4-5.4h212.7c3,0,5.4,2.4,5.4,5.4v30.8
				C1140.5,51,1138.1,53.4,1135.1,53.4z"/>
			<path class="st2" d="M916.5,167.6V20.3c0-3,2.4-5.4,5.4-5.4h33.9c3,0,5.4,2.4,5.4,5.4v147.3c0,3-2.4,5.4-5.4,5.4H922
				C919,173,916.5,170.6,916.5,167.6z"/>
			<path class="st2" d="M1132.1,173H923.2c-3,0-5.4-2.4-5.4-5.4v-28.8c0-3,2.4-5.4,5.4-5.4h208.9c3,0,5.4,2.4,5.4,5.4v28.8
				C1137.6,170.6,1135.1,173,1132.1,173z"/>
			<path class="st2" d="M1093.8,166.9V76.1c0-3,2.4-5.4,5.4-5.4h35.5c3,0,5.4,2.4,5.4,5.4v90.8c0,3-2.4,5.4-5.4,5.4h-35.5
				C1096.2,172.3,1093.8,169.9,1093.8,166.9z"/>
			<path class="st2" d="M1131.1,113h-106.2c-3,0-5.4-2.4-5.4-5.4V76.1c0-3,2.4-5.4,5.4-5.4h106.2c3,0,5.4,2.4,5.4,5.4v31.5
				C1136.5,110.6,1134.1,113,1131.1,113z"/>
		</g>
		<path class="st2" d="M440.5,169.9V9.6c0-1.7,1.4-3.1,3.1-3.1h0.1c1.7,0,3.1,1.4,3.1,3.1v160.3c0,1.7-1.4,3.1-3.1,3.1h-0.1
			C442,173,440.5,171.6,440.5,169.9z"/>
		<path class="st2" d="M308.8,9.6v160.3c0,1.7-1.4,3.1-3.1,3.1h-0.1c-1.7,0-3.1-1.4-3.1-3.1V9.6c0-1.7,1.4-3.1,3.1-3.1h0.1
			C307.4,6.4,308.8,7.8,308.8,9.6z"/>
		<path class="st2" d="M708.8,70.2l17.6-21.5l15.5,13.1c2.7,2.2,3,6.3,0.8,9l-13.6,16.6L708.8,70.2z"/>
		<path class="st2" d="M721.7,117.7l-14.8-23.6l22.3-14.4L741.4,99c1.5,2.3,0.8,5.4-1.5,6.8L721.7,117.7z"/>
	</g>
</g>
<g id="Layer_1_00000065755554780933892530000008130504520573218204_">
	<g>
		<path class="st3" d="M223.6,51.5H14.9c-3,0-5.4-2.4-5.4-5.4V14.9c0-3,2.4-5.4,5.4-5.4h208.6c3,0,5.4,2.4,5.4,5.4v31.1
			C229,49.1,226.6,51.5,223.6,51.5z"/>
		<path class="st3" d="M9.5,103.6V37.4c0-3,2.4-5.4,5.4-5.4h39.1c3,0,5.4,2.4,5.4,5.4v66.1c0,3-2.4,5.4-5.4,5.4H14.9
			C11.9,109,9.5,106.6,9.5,103.6z"/>
		<path class="st3" d="M224.4,111.5H15.8c-3,0-5.4-2.4-5.4-5.4V75c0-3,2.4-5.4,5.4-5.4h208.6c3,0,5.4,2.4,5.4,5.4v31.1
			C229.8,109.1,227.4,111.5,224.4,111.5z"/>
		<path class="st3" d="M178.5,165.6V75.4c0-3,2.4-5.4,5.4-5.4H225c3,0,5.4,2.4,5.4,5.4v90.1c0,3-2.4,5.4-5.4,5.4h-41.1
			C180.9,171,178.5,168.6,178.5,165.6z"/>
		<path class="st3" d="M223.5,171.2H14.8c-3,0-5.4-2.4-5.4-5.4v-31.1c0-3,2.4-5.4,5.4-5.4h208.6c3,0,5.4,2.4,5.4,5.4v31.1
			C228.9,168.8,226.5,171.2,223.5,171.2z"/>
		<path class="st3" d="M260.2,165.6V15.4c0-3,2.4-5.4,5.4-5.4h36.5c3,0,5.4,2.4,5.4,5.4v150.2c0,3-2.4,5.4-5.4,5.4h-36.5
			C262.6,171.1,260.2,168.6,260.2,165.6z"/>
		<path class="st3" d="M474.6,171.1H266c-3,0-5.4-2.4-5.4-5.4v-31.1c0-3,2.4-5.4,5.4-5.4h208.6c3,0,5.4,2.4,5.4,5.4v31.1
			C480,168.7,477.6,171.1,474.6,171.1z"/>
		<path class="st3" d="M434.5,165.2V15c0-3,2.4-5.4,5.4-5.4h34.6c3,0,5.4,2.4,5.4,5.4v150.2c0,3-2.4,5.4-5.4,5.4h-34.6
			C436.9,170.7,434.5,168.2,434.5,165.2z"/>
		<path class="st3" d="M511.7,165.4V15.2c0-3,2.4-5.4,5.4-5.4h34.5c3,0,5.4,2.4,5.4,5.4v150.2c0,3-2.4,5.4-5.4,5.4h-34.5
			C514.1,170.9,511.7,168.4,511.7,165.4z"/>
		<path class="st3" d="M729.1,52.3H517c-3,0-5.4-2.4-5.4-5.4V15.4c0-3,2.4-5.4,5.4-5.4h195.3c12.2,0,22.2,9.9,22.2,22.2v14.8
			C734.5,49.9,732.1,52.3,729.1,52.3z"/>
		<path class="st3" d="M691.3,110.5H533.1c-11.7,0-21.2-9.5-21.2-21.2l0,0c0-11.7,9.5-21.2,21.2-21.2h158.2
			c11.7,0,21.2,9.5,21.2,21.2l0,0C712.5,101,703,110.5,691.3,110.5z"/>
		<path class="st3" d="M689.7,156.2V24.5c0-8.1,6.6-14.7,14.7-14.7l0,0c10,0,18.1,8.1,18.1,18.1v124.8c0,10-8.1,18.1-18.1,18.1l0,0
			C696.3,170.9,689.7,164.3,689.7,156.2z"/>
		<path class="st3" d="M729.1,128.2H517.3c-3,0-5.4,2.4-5.4,5.4v31.9c0,3,2.4,5.4,5.4,5.4h195.2c12.1,0,21.9-9.8,21.9-21.9v-15.5
			C734.5,130.6,732.1,128.2,729.1,128.2z"/>
		<path class="st4" d="M689.4,69.3H557.6c-3.4,0-6.1-2.7-6.1-6.1v-6.8c0-4.2,3.4-7.6,7.5-7.6h128.9c4.2,0,7.5,3.4,7.5,7.6v6.8
			C695.5,66.5,692.8,69.3,689.4,69.3z"/>
		<path class="st3" d="M695.5,149.9v-41.1c0-9.3,7.5-16.8,16.8-16.8h5.9c9.3,0,16.8,7.5,16.8,16.8v41.1c0,9.3-7.5,16.8-16.8,16.8
			h-5.9C703,166.6,695.5,159.1,695.5,149.9z"/>
		<path class="st3" d="M695.5,64.5V34.6c0-9.3,7.5-16.8,16.8-16.8h5.9c9.3,0,16.8,7.5,16.8,16.8v29.9c0,9.3-7.5,16.8-16.8,16.8h-5.9
			C703.1,81.3,695.5,73.8,695.5,64.5z"/>
		<rect x="762.7" y="74" width="131.8" height="40.1"/>
		<path d="M1133.9,55.3H925.3c-3,0-5.4-2.4-5.4-5.4V20.4c0-3,2.4-5.4,5.4-5.4h208.6c3,0,5.4,2.4,5.4,5.4v29.4
			C1139.4,52.9,1136.9,55.3,1133.9,55.3z"/>
		<path d="M919.5,165.6V23.5c0-3,2.4-5.4,5.4-5.4H958c3,0,5.4,2.4,5.4,5.4v142.1c0,3-2.4,5.4-5.4,5.4h-33.1
			C921.9,171,919.5,168.6,919.5,165.6z"/>
		<path d="M1131.1,171H926.2c-3,0-5.4-2.4-5.4-5.4v-27.5c0-3,2.4-5.4,5.4-5.4h204.9c3,0,5.4,2.4,5.4,5.4v27.5
			C1136.5,168.6,1134.1,171,1131.1,171z"/>
		<path d="M1093.5,164.8V77.4c0-3,2.4-5.4,5.4-5.4h34.7c3,0,5.4,2.4,5.4,5.4v87.4c0,3-2.4,5.4-5.4,5.4h-34.7
			C1095.9,170.3,1093.5,167.9,1093.5,164.8z"/>
		<path d="M1130.1,113H1026c-3,0-5.4-2.4-5.4-5.4V77.4c0-3,2.4-5.4,5.4-5.4h104.1c3,0,5.4,2.4,5.4,5.4v30.1
			C1135.5,110.5,1133.1,113,1130.1,113z"/>
		<path class="st3" d="M436.5,167.9V13.1c0-1.7,1.4-3.1,3.1-3.1l0,0c1.7,0,3.1,1.4,3.1,3.1v154.8c0,1.7-1.4,3.1-3.1,3.1l0,0
			C437.9,171,436.5,169.6,436.5,167.9z"/>
		<path class="st3" d="M307.2,13.1v154.8c0,1.7-1.4,3.1-3.1,3.1l0,0c-1.7,0-3.1-1.4-3.1-3.1V13.1c0-1.7,1.4-3.1,3.1-3.1l0,0
			C305.8,9.9,307.2,11.3,307.2,13.1z"/>
		<path class="st3" d="M699.9,71.6l17.3-20.8l15.2,12.6c2.7,2.2,3,6.2,0.8,8.8l-13.3,15.9L699.9,71.6z"/>
		<path class="st3" d="M712.5,117.5L698,94.7l21.9-14l11.9,18.7c1.5,2.3,0.8,5.3-1.5,6.7L712.5,117.5z"/>
	</g>
</g>
</svg>
